# AST/ASF file generated using VICON BodyLanguage
# -----------------------------------------------
:version 1.10
:name VICON
:units
  mass 1.0
  length 0.45
  angle deg
:documentation
   .ast/.asf automatically generated from VICON data using
   VICON BodyBuilder and BodyLanguage model FoxedUp or BRILLIANT.MOD
:root
   order TX TY TZ RX RY RZ
   axis XYZ
   position 0 0 0  
   orientation 0 0 0 
:bonedata
  begin
     id 1 
     name lhipjoint
     direction 0.573633 -0.743009 0.344793 
     length 2.46257 
     axis 0 0 0  XYZ
  end
  begin
     id 2 
     name lfemur
     direction 0.34202 -0.939693 0  
     length 7.3842  
     axis 0 0 20  XYZ
    dof rx ry rz
    limits (-160.0 20.0)
           (-70.0 70.0)
           (-60.0 70.0)
  end
  begin
     id 3 
     name ltibia
     direction 0.34202 -0.939693 0   
     length 7.50407   
     axis 0 0 20   XYZ
    dof rx
    limits (-10.0 170.0)
  end
  begin
     id 4 
     name lfoot
     direction 0.110749 -0.304281 0.946123   
     length 1.95925   
     axis -90 7.62852e-016 20   XYZ
    dof rx rz
    limits (-45.0 90.0)
           (-70.0 20.0)
  end
  begin
     id 5 
     name ltoes
     direction 1.53554e-011 -4.21843e-011 1   
     length 0.978318   
     axis -90 7.62852e-016 20   XYZ
    dof rx
    limits (-90.0 20.0)
  end
  begin
     id 6 
     name rhipjoint
     direction -0.488109 -0.791693 0.367385   
     length 2.31113  
     axis 0 0 0  XYZ 
  end
  begin
     id 7 
     name rfemur
     direction -0.34202 -0.939693 0   
     length 7.40965   
     axis 0 0 -20   XYZ
    dof rx ry rz
    limits (-160.0 20.0)
           (-70.0 70.0)
           (-70.0 60.0)
  end
  begin
     id 8 
     name rtibia
     direction -0.34202 -0.939693 0   
     length 7.55548   
     axis 0 0 -20   XYZ
    dof rx
    limits (-10.0 170.0)
 end
 begin
     id 9 
     name rfoot
     direction -0.127594 -0.350561 0.927808   
     length 2.07199  
     axis -90 -7.62852e-016 -20   XYZ
    dof rx rz
    limits (-45.0 90.0)
           (-20.0 70.0)
  end
  begin
     id 10 
     name rtoes
     direction -1.53542e-011 -4.21909e-011 1   
     length 1.02667   
     axis -90 -7.62852e-016 -20   XYZ
    dof rx
    limits (-90.0 20.0)
  end
  begin
     id 11 
     name lowerback
     direction -0.0103342 0.997298 -0.0727278   
     length 2.02836   
     axis 0 0 0   XYZ
    dof rx ry rz
    limits (-20.0 45.0)
           (-30.0 30.0)
           (-30.0 30.0)
  end
  begin
     id 12 
     name upperback
     direction 0.0171146 0.999786 -0.011606   
     length 2.03179   
     axis 0 0 0   XYZ
    dof rx ry rz
    limits (-20.0 45.0)
           (-30.0 30.0)
           (-30.0 30.0)
  end
  begin
     id 13 
     name thorax
     direction 0.0216927 0.999513 0.0224343   
     length 2.03882   
     axis 0 0 0   XYZ
    dof rx ry rz
    limits (-20.0 45.0)
           (-30.0 30.0)
           (-30.0 30.0)
  end
  begin
     id 14 
     name lowerneck
     direction 0.000989287 0.993907 0.110221   
     length 1.75428   
     axis 0 0 0   XYZ
    dof rx ry rz
    limits (-20.0 45.0)
           (-30.0 30.0)
           (-30.0 30.0)
  end
  begin
     id 15 
     name upperneck
     direction -0.0172474 0.994813 -0.100253   
     length 1.77058   
     axis 0 0 0   XYZ
    dof rx ry rz
    limits (-20.0 45.0)
           (-30.0 30.0)
           (-30.0 30.0)
  end
  begin
     id 16
     name head
     direction -0.00486455 0.99894 -0.0457663  
     length 1.77427  
     axis 0 0 0   XYZ
    dof rx ry rz
    limits (-20.0 45.0)
           (-30.0 30.0)
           (-30.0 30.0)
  end
  begin
     id 17 
     name lclavicle
     direction 0.927314 0.333734 -0.169441  
     length 3.97584  
     axis 0 0 0   XYZ
    dof ry rz
    limits (-20.0 10.0)
           (0.0 20.0)
  end
  begin
     id 18 
     name lhumerus
     direction 1 -4.48965e-011 -3.25313e-028   
     length 4.76468   
     axis 180 -30 -90   XYZ
    dof rx ry rz
    limits (-60.0 90.0)
           (-90.0 90.0)
           (-90.0 90.0)
  end
  begin
     id 19
     name lradius
     direction 1 -4.48969e-011 -2.8465e-028   
     length 3.52712   
     axis -180 -30 -90   XYZ
    dof rx
    limits (-10.0 170.0)
  end
  begin
     id 20
     name lwrist
     direction 1 -4.4896e-011 -7.78665e-028   
     length 1.76356   
     axis 1.91374e-015 90 90   XYZ
    dof ry
    limits (-180.0 0.0)
 end
  begin
     id 21 
     name lhand
     direction 1 -4.48959e-011 -1.55733e-027   
     length 0.859564   
     axis 9.9371e-016 90 90   XYZ
    dof rx rz
    limits (-90.0 90.0)
           (-45.0 45.0)
  end
  begin
     id 22 
     name lfingers
     direction 1 -4.48965e-011 -3.11466e-027   
     length 0.693002   
     axis 1.98742e-015 90 90   XYZ
    dof rx
    limits (0.0 90.0)
  end
  begin
     id 23
     name lthumb
     direction 0.707107 -6.34948e-011 0.707107   
     length 0.995017   
     axis -90 45 2.85299e-015   XYZ
    dof rx rz
    limits (-45.0 45.0)
           (-45.0 45.0)
  end
  begin
     id 24 
     name rclavicle
     direction -0.899388 0.348209 -0.264294   
     length 3.68366  
     axis 0 0 0   XYZ 
    dof ry rz
    limits (-10.0 20.0)
           (-20.0 0.0)
  end
  begin
     id 25 
     name rhumerus
     direction -1 -4.48965e-011 -3.01536e-027  
     length 4.90577   
     axis 180 30 90   XYZ
    dof rx ry rz
    limits (-90.0 60.0)
           (-90.0 90.0)
           (-90.0 90.0)
  end
  begin
     id 26 
     name rradius
     direction -1 -4.48966e-011 3.93291e-027   
     length 3.42692   
     axis -180 30 90   XYZ
    dof rx
    limits (-10.0 170.0)
  end
  begin
     id 27 
     name rwrist
     direction -1 -4.48969e-011 -7.78665e-028   
     length 1.71346   
     axis 1.91374e-015 -90 -90   XYZ
    dof ry
    limits (-180.0 0.0)
  end
  begin
     id 28
     name rhand
     direction -1 -4.48967e-011 -1.55733e-027   
     length 0.740957   
     axis 9.9371e-016 -90 -90   XYZ
    dof rx rz
    limits (-90.0 90.0)
           (-45.0 45.0)
  end
  begin
     id 29
     name rfingers
     direction -1 -4.48949e-011 -3.11466e-027   
     length 0.597378   
     axis 1.98742e-015 -90 -90   XYZ
    dof rx
    limits (0.0 90.0)
  end
  begin
     id 30
     name rthumb
     direction -0.707107 -6.34931e-011 0.707107   
     length 0.857719   
     axis -90 -45 -2.85299e-015   XYZ
    dof rx rz
    limits (-45.0 45.0)
           (-45.0 45.0)
  end
:hierarchy
  begin
    root lhipjoint rhipjoint lowerback
    lhipjoint lfemur
    lfemur ltibia
    ltibia lfoot
    lfoot ltoes
    rhipjoint rfemur
    rfemur rtibia
    rtibia rfoot
    rfoot rtoes
    lowerback upperback
    upperback thorax
    thorax lowerneck lclavicle rclavicle
    lowerneck upperneck
    upperneck head
    lclavicle lhumerus
    lhumerus lradius
    lradius lwrist
    lwrist lhand lthumb
    lhand lfingers
    rclavicle rhumerus
    rhumerus rradius
    rradius rwrist
    rwrist rhand rthumb
    rhand rfingers
  end

#!OML:ASF E:\I on waltz\AllaLogoMonkeySwing\Project 1\Capture day 1\Session 1\Subject1.ASF
:FULLY-SPECIFIED
:DEGREES
48
root 1.74845 18.0436 -30.9914 4.40255 -1.76428 -0.551682
lowerback 6.85241 -0.254275 -2.9037
upperback 0.446819 -0.502609 1.70478
thorax -3.3418 -0.195592 3.4479
lowerneck -13.9198 1.20301 -2.68549
upperneck 29.7352 2.68826 -0.702079
head 12.0561 0.803666 0.582488
rclavicle -3.67752e-015 -2.96189e-014
rhumerus -31.9126 -20.6737 -79.1287
rradius 23.777
rwrist 0.436377
rhand -9.47882 -37.6969
rfingers 7.12502
rthumb 16.4855 -67.0166
lclavicle -3.67752e-015 -2.96189e-014
lhumerus -58.0282 11.1582 86.0494
lradius 64.7768
lwrist 10.5057
lhand -9.21023 -2.54185
lfingers 7.12502
lthumb 16.7441 26.7561
rfemur -3.19581 1.48057 20.6495
rtibia 17.2924
rfoot -17.0356 -9.52549
rtoes 7.49282
lfemur 1.29738 2.90051 -19.318
ltibia 8.07255
lfoot -13.8363 1.108
ltoes -26.5419
49
root 1.74469 18.0437 -30.9863 4.54646 -1.74548 -0.500269
lowerback 6.96668 -0.235358 -2.99904
upperback 0.425025 -0.485887 1.75466
thorax -3.42869 -0.183439 3.55398
lowerneck -12.2719 0.834553 -1.20495
upperneck 27.2091 2.28017 -2.86937
head 10.8018 0.569619 -0.535598
rclavicle -2.83268e-015 -6.36111e-015
rhumerus -31.9252 -20.5412 -79.083
rradius 23.7694
rwrist 0.417179
rhand -9.39465 -38.1316
rfingers 7.12502
rthumb 16.5665 -67.4445
lclavicle -2.83268e-015 -6.36111e-015
lhumerus -58.1673 11.0312 86.1252
lradius 64.9624
lwrist 10.3013
lhand -9.15269 -2.38976
lfingers 7.12502
lthumb 16.7995 26.9035
rfemur -3.34362 1.48682 20.588
rtibia 17.3153
rfoot -17.1445 -9.54107
rtoes 8.15422
lfemur 1.14546 2.78822 -19.4003
ltibia 8.0965
lfoot -13.8654 1.19923
ltoes -26.2562
50
root 1.74317 18.0451 -30.9816 4.7535 -1.74101 -0.362124
lowerback 7.00771 -0.24132 -3.12554
upperback 0.409821 -0.504711 1.75947
thorax -3.46485 -0.18983 3.63318
lowerneck -12.0827 0.881679 -1.12382
upperneck 26.9936 2.35098 -3.00001
head 10.6875 0.600439 -0.58707
rclavicle -4.62174e-015 3.18055e-014
rhumerus -31.959 -20.5047 -79.0394
rradius 23.8067
rwrist 0.571618
rhand -9.24328 -38.0862
rfingers 7.12502
rthumb 16.7122 -67.3868
lclavicle -4.62174e-015 3.18055e-014
lhumerus -58.3679 10.9396 86.1719
lradius 65.224
lwrist 10.4124
lhand -9.19226 -2.34568
lfingers 7.12502
lthumb 16.7614 26.9508
rfemur -3.58622 1.46579 20.406
rtibia 17.3598
rfoot -17.1911 -9.53728
rtoes 8.32951
lfemur 0.876045 2.78758 -19.582
ltibia 8.19787
lfoot -13.8856 1.1853
ltoes -26.0705
51
root 1.74276 18.0486 -30.9761 4.92677 -1.79101 -0.278569
lowerback 7.04091 -0.222803 -3.16839
upperback 0.452893 -0.484846 1.74095
thorax -3.44028 -0.180612 3.63622
lowerneck -12.0554 0.909043 -1.08202
upperneck 26.9281 2.38406 -3.02697
head 10.6589 0.618084 -0.599473
rclavicle -1.87355e-014 -7.95139e-015
rhumerus -31.9288 -20.5045 -79.0767
rradius 23.8253
rwrist 0.673368
rhand -9.28001 -37.729
rfingers 7.12502
rthumb 16.6769 -67.0327
lclavicle -1.87355e-014 -7.95139e-015
lhumerus -58.5053 10.8109 86.2107
lradius 65.517
lwrist 10.579
lhand -9.2687 -2.34251
lfingers 7.12502
lthumb 16.6878 26.9602
rfemur -3.79739 1.46311 20.2917
rtibia 17.3981
rfoot -17.0016 -9.53592
rtoes 8.56658
lfemur 0.66584 2.84647 -19.6883
ltibia 8.26181
lfoot -13.9074 1.1595
ltoes -26.2717
52
root 1.74134 18.0504 -30.9702 5.01115 -1.85786 -0.278684
lowerback 7.1897 -0.176469 -3.12573
upperback 0.507489 -0.42438 1.71652
thorax -3.47268 -0.151556 3.58202
lowerneck -11.9929 0.942816 -1.02822
upperneck 26.8602 2.39972 -2.97139
head 10.6208 0.639214 -0.586683
rclavicle 2.5842e-015 -1.11319e-014
rhumerus -31.9317 -20.5467 -79.1395
rradius 23.8575
rwrist 0.69196
rhand -9.35477 -37.4777
rfingers 7.12502
rthumb 16.6049 -66.7873
lclavicle 2.5842e-015 -1.11319e-014
lhumerus -58.5678 10.5825 86.2075
lradius 65.7146
lwrist 10.6331
lhand -9.25516 -2.31713
lfingers 7.12502
lthumb 16.7008 26.9845
rfemur -3.89669 1.50061 20.2921
rtibia 17.4174
rfoot -16.8245 -9.55363
rtoes 8.65483
lfemur 0.583593 2.80513 -19.7001
ltibia 8.27679
lfoot -13.9092 1.2535
ltoes -26.8388
53
root 1.7392 18.0504 -30.9634 5.07903 -1.85883 -0.262301
lowerback 7.38152 -0.15165 -3.10153
upperback 0.5617 -0.394683 1.70377
thorax -3.52663 -0.136991 3.5539
lowerneck -11.9335 0.993768 -1.03084
upperneck 26.7776 2.44022 -2.87027
head 10.5771 0.671583 -0.544825
rclavicle -1.88845e-015 2.52457e-014
rhumerus -32.0893 -20.6151 -79.1665
rradius 24.1708
rwrist 0.724752
rhand -9.23891 -37.5333
rfingers 7.12502
rthumb 16.7164 -66.8336
lclavicle -1.88845e-015 2.52457e-014
lhumerus -58.567 10.3069 86.2142
lradius 65.8229
lwrist 10.609
lhand -9.12415 -2.24187
lfingers 7.12502
lthumb 16.8269 27.049
rfemur -3.95134 1.51426 20.2793
rtibia 17.4256
rfoot -16.7984 -9.58871
rtoes 8.65652
lfemur 0.502272 2.79588 -19.7178
ltibia 8.32756
lfoot -13.8943 1.26227
ltoes -27.1429
